<svg width="96" height="89" viewBox="0 0 96 89" fill="none" xmlns="http://www.w3.org/2000/svg">
<path d="M55.5002 74.1669C55.5002 82.0481 48.5966 88.5 39.9998 88.5C31.4029 88.5 24.5 82.0481 24.5 74.1669C24.5 66.2857 31.4029 59.8331 39.9998 59.8331C48.5966 59.8331 55.5002 66.2857 55.5002 74.1669Z" fill="white" stroke="#A7A7A7"/>
<path d="M70.8275 56.0905C70.8874 56.0868 70.9463 56.0832 71.0036 56.0799C72.5866 58.7137 74.6555 61.109 77.2026 63.1079C78.6861 64.2835 79.5002 65.9411 79.5002 67.6769C79.5002 70.9448 76.6205 73.6669 72.9998 73.6669H6.99976C3.37975 73.6669 0.5 70.9449 0.5 67.6769C0.5 65.9389 1.3159 64.2823 2.75713 63.1414C8.95471 58.2834 12.5 51.2145 12.5 43.7137V33.375C12.5 19.3718 24.8001 7.9169 39.9998 7.9169C40.0971 7.9169 40.1895 7.91925 40.2803 7.92303C37.2633 12.6737 35.5 18.1947 35.5 24.1044C35.5 41.7963 51.0121 56.125 69.9998 56.125C70.2634 56.125 70.5563 56.1071 70.8275 56.0905Z" fill="white" stroke="#A7A7A7"/>
<path d="M69.9998 0C55.6641 0 44.0002 10.8133 44.0002 24.1044C44.0002 37.3948 55.6641 48.2081 69.9998 48.2081C84.3362 48.2081 96 37.3948 96 24.1044C96 10.8133 84.3362 0 69.9998 0V0ZM75 29.6669C76.656 29.6669 78 30.9129 78 32.4481C78 33.9834 76.656 35.2294 75 35.2294H65.0002C63.3442 35.2294 62.0002 33.9834 62.0002 32.4481V29.2215C62.0002 24.8683 65.8242 21.3231 70.5198 21.3231C71.3357 21.3231 72 20.7073 72 19.9509C72 19.1571 71.3357 18.5419 70.5198 18.5419H65.0002C63.3442 18.5419 62.0002 17.2959 62.0002 15.7606C62.0002 14.2254 63.3442 12.9794 65.0002 12.9794H70.5198C74.644 12.9794 78 16.0906 78 19.9135C78 23.7744 74.644 26.8856 70.5198 26.8856C69.1318 26.8856 68.0002 27.9347 68.0002 29.2215V29.6669H75Z" fill="#FBBD08"/>
</svg>
