<svg width="207" height="63" viewBox="0 0 207 63" fill="none" xmlns="http://www.w3.org/2000/svg">
<path d="M48.74 33.348C48.74 32.1467 48.5587 31.2173 48.196 30.56C47.856 29.9027 47.2893 29.438 46.496 29.166C45.7027 28.894 44.592 28.758 43.164 28.758C38.268 28.758 33.95 29.2907 30.21 30.356C30.1193 30.56 30.074 30.832 30.074 31.172C30.074 31.512 30.142 31.8067 30.278 32.056C31.2753 31.716 32.896 31.3873 35.14 31.07C37.4067 30.73 39.492 30.56 41.396 30.56C42.2573 30.56 42.9147 30.662 43.368 30.866C43.844 31.0473 44.1727 31.376 44.354 31.852C44.558 32.3053 44.66 32.9627 44.66 33.824V48.58C44.66 49.804 44.1727 50.62 43.198 51.028C42.2233 51.436 40.308 51.64 37.452 51.64C36.4093 51.64 35.7067 51.4927 35.344 51.198C34.9813 50.9033 34.8 50.314 34.8 49.43V33.382C34.8 32.974 34.596 32.77 34.188 32.77C33.0773 32.77 32.114 32.906 31.298 33.178C30.9127 33.314 30.72 33.552 30.72 33.892V51.538C30.72 52.1273 30.822 52.558 31.026 52.83C31.2527 53.0793 31.604 53.238 32.08 53.306C32.5787 53.3967 33.3493 53.442 34.392 53.442C36.0693 53.442 37.214 53.4307 37.826 53.408C40.3647 53.3627 42.2687 53.2153 43.538 52.966C45.3967 52.6487 46.6773 52.1953 47.38 51.606C47.8107 51.266 48.1393 50.858 48.366 50.382C48.6153 49.8833 48.74 49.3393 48.74 48.75V33.348ZM53.6254 31.648C53.58 32.4187 53.7614 32.7813 54.1694 32.736L56.8214 32.634C57.116 32.5887 57.2974 32.498 57.3654 32.362C57.456 32.226 57.5014 31.9653 57.5014 31.58V29.846C57.5467 29.0753 57.3654 28.7127 56.9574 28.758L54.3054 28.86C54.0107 28.9053 53.818 28.996 53.7274 29.132C53.6594 29.268 53.6254 29.5287 53.6254 29.914V31.648ZM60.9354 52.796C61.0034 52.592 61.0374 52.3993 61.0374 52.218C61.0374 51.946 60.992 51.7307 60.9014 51.572H58.5214C58.2947 51.572 58.1814 50.9713 58.1814 49.77V36.986C58.204 36.51 58.17 36.1813 58.0794 36C58.0114 35.796 57.8414 35.6713 57.5694 35.626C57.2974 35.558 56.8214 35.524 56.1414 35.524C54.5774 35.524 53.0474 35.7393 51.5514 36.17C51.4834 36.374 51.4494 36.5667 51.4494 36.748C51.4494 37.02 51.4947 37.2353 51.5854 37.394L53.9314 37.326C54.1807 37.326 54.3054 37.9493 54.3054 39.196V51.98C54.2827 52.456 54.3054 52.796 54.3734 53C54.464 53.1813 54.6454 53.2947 54.9174 53.34C55.1894 53.408 55.6654 53.442 56.3454 53.442C57.9094 53.442 59.4394 53.2267 60.9354 52.796ZM64.7011 60.82C68.7585 60.8427 72.2038 60.548 75.0371 59.936C76.0571 59.732 76.8051 59.358 77.2811 58.814C77.7798 58.27 78.0291 57.522 78.0291 56.57V39.196C78.0291 38.2213 77.8931 37.4733 77.6211 36.952C77.3491 36.4307 76.8958 36.068 76.2611 35.864C75.6491 35.6373 74.7651 35.524 73.6091 35.524C70.1411 35.524 67.6025 35.796 65.9931 36.34C64.4065 36.9067 63.6131 37.8927 63.6131 39.298V50.858C63.6131 51.7873 63.8738 52.456 64.3951 52.864C64.9165 53.2493 65.8005 53.442 67.0471 53.442C67.9991 53.442 68.9285 53.3287 69.8351 53.102C70.6285 52.9207 71.5805 52.6827 72.6911 52.388L74.1531 51.98V56.298C74.1531 56.774 74.1078 57.1253 74.0171 57.352C73.9491 57.5787 73.7791 57.8053 73.5071 58.032C73.1898 58.2813 72.6685 58.474 71.9431 58.61C70.4925 58.9047 68.0218 59.052 64.5311 59.052C64.4405 59.256 64.3951 59.5507 64.3951 59.936C64.3951 60.1627 64.4971 60.4573 64.7011 60.82ZM67.4891 39.434C67.4665 38.5273 67.7611 37.8813 68.3731 37.496C68.9398 37.1333 70.2091 36.952 72.1811 36.952C72.9291 36.952 73.4391 37.1447 73.7111 37.53C74.0058 37.8927 74.1531 38.584 74.1531 39.604V50.45C71.9771 51.0847 70.3905 51.402 69.3931 51.402C68.1238 51.402 67.4891 50.9373 67.4891 50.008V39.434ZM82.9105 31.648C82.8652 32.4187 83.0465 32.7813 83.4545 32.736L86.1065 32.634C86.4012 32.5887 86.5825 32.498 86.6505 32.362C86.7412 32.226 86.7865 31.9653 86.7865 31.58V29.846C86.8319 29.0753 86.6505 28.7127 86.2425 28.758L83.5905 28.86C83.2959 28.9053 83.1032 28.996 83.0125 29.132C82.9445 29.268 82.9105 29.5287 82.9105 29.914V31.648ZM90.2205 52.796C90.2885 52.592 90.3225 52.3993 90.3225 52.218C90.3225 51.946 90.2772 51.7307 90.1865 51.572H87.8065C87.5799 51.572 87.4665 50.9713 87.4665 49.77V36.986C87.4892 36.51 87.4552 36.1813 87.3645 36C87.2965 35.796 87.1265 35.6713 86.8545 35.626C86.5825 35.558 86.1065 35.524 85.4265 35.524C83.8625 35.524 82.3325 35.7393 80.8365 36.17C80.7685 36.374 80.7345 36.5667 80.7345 36.748C80.7345 37.02 80.7799 37.2353 80.8705 37.394L83.2165 37.326C83.4659 37.326 83.5905 37.9493 83.5905 39.196V51.98C83.5679 52.456 83.5905 52.796 83.6585 53C83.7492 53.1813 83.9305 53.2947 84.2025 53.34C84.4745 53.408 84.9505 53.442 85.6305 53.442C87.1945 53.442 88.7245 53.2267 90.2205 52.796Z" fill="#1C205D"/>
<path d="M91.7083 53.272C92.9096 53.3853 94.5756 53.442 96.7063 53.442C98.4516 53.442 99.8683 53.204 100.956 52.728C102.067 52.2293 102.622 51.4927 102.622 50.518C102.622 49.6113 102.237 48.5347 101.466 47.288L96.7063 39.774C96.3436 39.2527 96.1623 38.7993 96.1623 38.414C96.1623 37.5073 97.035 37.054 98.7803 37.054C100.095 37.054 101.07 37.0993 101.704 37.19C101.818 36.8953 101.874 36.646 101.874 36.442C101.874 36.1927 101.806 35.932 101.67 35.66C100.922 35.5693 99.891 35.524 98.5763 35.524C94.247 35.524 92.0823 36.4873 92.0823 38.414C92.0823 38.9807 92.1616 39.4793 92.3203 39.91C92.479 40.3407 92.8303 40.964 93.3743 41.78L98.1343 49.294C98.4516 49.8833 98.6103 50.2913 98.6103 50.518C98.6103 51.062 98.3836 51.4247 97.9303 51.606C97.4543 51.81 96.6383 51.912 95.4823 51.912C93.6916 51.912 92.4223 51.8553 91.6743 51.742C91.5836 51.946 91.5383 52.1953 91.5383 52.49C91.5383 52.7847 91.595 53.0453 91.7083 53.272ZM121.897 52.796C121.965 52.592 121.999 52.3993 121.999 52.218C121.999 51.946 121.954 51.7307 121.863 51.572L119.517 51.64C119.268 51.64 119.143 51.0167 119.143 49.77V38.006C119.143 37.122 118.86 36.4873 118.293 36.102C117.749 35.7167 116.865 35.524 115.641 35.524C111.856 35.524 108.524 35.9773 105.645 36.884C105.554 37.0427 105.509 37.2693 105.509 37.564C105.509 37.8587 105.566 38.142 105.679 38.414C106.2 38.2553 107.288 38.0173 108.943 37.7C110.847 37.3827 112.116 37.224 112.751 37.224C113.771 37.224 114.44 37.36 114.757 37.632C115.097 37.904 115.267 38.4707 115.267 39.332V41.984C113 42.0973 110.609 42.3467 108.093 42.732C107.05 42.9587 106.291 43.344 105.815 43.888C105.339 44.4093 105.101 45.146 105.101 46.098V50.858C105.101 51.81 105.362 52.4787 105.883 52.864C106.404 53.2493 107.288 53.442 108.535 53.442C110.416 53.442 112.66 53.068 115.267 52.32C115.267 52.66 115.312 52.898 115.403 53.034C115.494 53.1927 115.675 53.2947 115.947 53.34C116.242 53.408 116.695 53.442 117.307 53.442C118.916 53.442 120.446 53.2267 121.897 52.796ZM115.267 50.79C113.567 51.2887 112.184 51.538 111.119 51.538C109.691 51.538 108.977 51.028 108.977 50.008V46.234C108.977 45.4407 109.124 44.9307 109.419 44.704C109.827 44.364 110.598 44.092 111.731 43.888C112.842 43.684 114.02 43.5593 115.267 43.514V50.79ZM124.818 37.326C125.067 37.326 125.192 37.9493 125.192 39.196V49.702C125.192 50.4273 125.271 51.028 125.43 51.504C125.611 51.9573 125.906 52.32 126.314 52.592C126.699 52.8867 127.209 53.0907 127.844 53.204C128.501 53.34 129.34 53.408 130.36 53.408C133.624 53.408 135.958 53.0227 137.364 52.252C138.089 51.8667 138.61 51.3793 138.928 50.79C139.268 50.178 139.438 49.4527 139.438 48.614V38.108C139.438 37.6093 139.415 37.224 139.37 36.952C139.347 36.68 139.256 36.442 139.098 36.238C138.712 35.7847 137.942 35.558 136.786 35.558C135.562 35.558 134.213 35.7733 132.74 36.204C132.717 36.34 132.706 36.4873 132.706 36.646C132.706 36.9633 132.774 37.2807 132.91 37.598C133.635 37.4167 134.326 37.326 134.984 37.326C135.233 37.326 135.392 37.4393 135.46 37.666C135.528 37.8927 135.562 38.3233 135.562 38.958V48.478C135.562 49.498 135.392 50.2573 135.052 50.756C134.734 51.232 134.247 51.5493 133.59 51.708C132.932 51.8667 131.98 51.946 130.734 51.946C130.099 51.946 129.657 51.7533 129.408 51.368C129.181 50.9827 129.068 50.3027 129.068 49.328V36.986C129.068 36.5327 129.056 36.2493 129.034 36.136C128.966 35.8187 128.671 35.626 128.15 35.558C127.968 35.5353 127.594 35.524 127.028 35.524C125.418 35.524 123.888 35.7393 122.438 36.17C122.37 36.374 122.336 36.5667 122.336 36.748C122.336 37.02 122.381 37.2353 122.472 37.394L124.818 37.326ZM157.362 50.722C156.66 50.9033 155.526 51.1187 153.962 51.368C152.421 51.6173 151.197 51.742 150.29 51.742C149.27 51.742 148.59 51.606 148.25 51.334C147.933 51.062 147.774 50.4953 147.774 49.634V45.758C149.837 45.622 152.126 45.3613 154.642 44.976C155.685 44.7493 156.444 44.3753 156.92 43.854C157.396 43.31 157.634 42.562 157.634 41.61V39.196C157.634 38.2213 157.498 37.4733 157.226 36.952C156.954 36.4307 156.501 36.068 155.866 35.864C155.254 35.6373 154.37 35.524 153.214 35.524C149.95 35.524 147.593 35.796 146.142 36.34C144.646 36.9067 143.898 37.8927 143.898 39.298V50.96C143.898 51.844 144.17 52.4787 144.714 52.864C145.281 53.2493 146.176 53.442 147.4 53.442C151.027 53.442 154.359 53.0453 157.396 52.252C157.487 52.0933 157.532 51.8667 157.532 51.572C157.532 51.232 157.476 50.9487 157.362 50.722ZM147.774 39.434C147.729 38.5273 147.99 37.8927 148.556 37.53C149.123 37.1447 150.2 36.952 151.786 36.952C152.534 36.952 153.044 37.1333 153.316 37.496C153.611 37.836 153.758 38.482 153.758 39.434V41.508C153.758 42.2333 153.611 42.732 153.316 43.004C153.022 43.276 152.41 43.514 151.48 43.718C150.528 43.8993 149.293 44.058 147.774 44.194V39.434Z" fill="#FBD56F"/>
<path opacity="0.1" d="M56.525 35C53.9228 35 51.8133 32.7614 51.8133 30C51.8133 27.2386 53.9228 25 56.525 25C59.1273 25 61.2368 27.2386 61.2368 30C61.2368 32.7614 59.1273 35 56.525 35Z" fill="#FBD56F"/>
<path d="M55.7118 35C53.1095 35 51 32.8113 51 30.1114C51 27.4114 53.1095 25.2227 55.7118 25.2227C58.314 25.2227 60.4236 27.4114 60.4236 30.1114C60.4236 32.8113 58.314 35 55.7118 35Z" fill="#FBD56F"/>
<path d="M61.1182 0.459954C11.2 5.94292 -0.418948 40.4399 0.0113814 57.003H18.5155L22.8188 38.1553C26.6918 23.5912 44.3354 10.7631 61.1182 9.8838C85.647 8.59873 142.451 13.739 207 63C179.172 39.8688 111.036 -5.02301 61.1182 0.459954Z" fill="#1C205E"/>
</svg>
